<svg xmlns="http://www.w3.org/2000/svg" data-name="Layer 1" viewBox="0 0 100 125" x="0px" y="0px"><title>4</title><path d="M34.31,82.71a5,5,0,1,1-5-5A5,5,0,0,1,34.31,82.71Zm27.71-5a5,5,0,1,0,5,5A5,5,0,0,0,62,77.71ZM89.67,34.47a13.06,13.06,0,0,1-13,13.05l-.64,0L70.62,63.72a2,2,0,0,1-1.9,1.37H31.88l-2.4,5.26h34a2,2,0,0,1,0,4H26.36a2,2,0,0,1-1.82-2.83l4-8.67L21,27H11a2,2,0,0,1,0-4H22.66a2,2,0,0,1,2,1.59l7.6,36.49H67.28L72,46.69a13.06,13.06,0,0,1-8.41-10.94H38.1a2,2,0,0,1-2-2,2,2,0,0,1,2-2H63.85a13.05,13.05,0,0,1,25.82,2.72Zm-4,0a9.06,9.06,0,0,0-18.11,0,8.83,8.83,0,0,0,.09,1.27,9.07,9.07,0,0,0,5.65,7.15,9,9,0,0,0,3.32.63l.69,0A9.05,9.05,0,0,0,85.67,34.47Zm-15.19,0a1.88,1.88,0,0,0,1.89,1.88,2.12,2.12,0,0,0,.57-.08l3.74,2.38a1.54,1.54,0,0,0-.05.43,1.88,1.88,0,1,0,.72-1.49L74,35.39a1.9,1.9,0,0,0,0-2l3.37-2.15a1.89,1.89,0,1,0-.72-1.49,1.54,1.54,0,0,0,.05.43l-3.74,2.39a1.79,1.79,0,0,0-.57-.09A1.88,1.88,0,0,0,70.48,34.42Z"/></svg>